<svg xmlns="http://www.w3.org/2000/svg" viewBox="0 0 220 220"><defs><style>.cls-1{fill:#f8f8f8;}.cls-2{fill:#666;}</style></defs><g id="Layer_2" data-name="Layer 2"><g id="Layer_1-2" data-name="Layer 1"><circle class="cls-1" cx="110" cy="110" r="110"/><path class="cls-2" d="M125.66,147.92c4.21-.9,8.42-1.57,12.47-2.73,8.62-2.48,15.73-7.19,20.35-15.06A39.43,39.43,0,0,0,163.42,115c.88-6.94,1.2-13.86-1.12-20.62a23.81,23.81,0,0,0-6.22-10.07,2.09,2.09,0,0,1-.68-2.61,28.82,28.82,0,0,0-.35-20.39A2.55,2.55,0,0,0,153,60.1a33.45,33.45,0,0,0-8.08,1.68,127.8,127.8,0,0,0-12,5.93,4.87,4.87,0,0,1-3.82.59,77.55,77.55,0,0,0-25.56-2.11c-4.36.34-8.65,1.46-13,2a6.55,6.55,0,0,1-3.77-.6c-5.92-3.32-11.88-6.42-18.72-7.44-3.39-.5-3.74-.39-4.72,2.9A29.92,29.92,0,0,0,63.67,82a2.29,2.29,0,0,1-.3,1.92c-7.12,7.86-9.25,17.12-8.13,27.44.71,6.57,2,12.94,5.39,18.7,4.6,7.89,11.63,12.68,20.27,15.15,3.42,1,7,1.45,10.5,2.15l2.35.48a17.72,17.72,0,0,0-4.7,10.27,1.64,1.64,0,0,1-.91,1.13c-5.29,1.85-10.61,2.71-16,.13a17.49,17.49,0,0,1-7.27-6.86c-2.52-4.09-5.77-7.38-10.56-8.62a16.31,16.31,0,0,0-5.58-.28c-1.84.18-2.18,1.4-1,2.85a8.32,8.32,0,0,0,1.93,1.77,26.12,26.12,0,0,1,10,12.67c4.05,9.94,13.52,13.24,22.36,12.58,1.95-.14,3.88-.41,6.19-.66v5.32c0,2.77,0,5.54,0,8.31-.09,3.54-2.55,5.25-6,4.12a84.07,84.07,0,0,1-20.81-10.39c-16.61-11.3-27.69-26.73-33.6-45.82a69.3,69.3,0,0,1-3.31-20.5c0-7.63,0-15.21,1.87-22.72A86.08,86.08,0,0,1,41.93,58.41a85.62,85.62,0,0,1,75.7-33,83.41,83.41,0,0,1,46.29,18.71c13.64,11,23.15,25,27.85,41.83,7.76,27.88,2.95,53.6-14.73,76.65-10.19,13.29-23.62,22.23-39.34,27.84-3.82,1.37-6.25-.32-6.27-4.38,0-7.43,0-14.86,0-22.29,0-4.57-.6-9-3.34-12.92C127.36,149.88,126.53,149,125.66,147.92Z"/></g></g></svg>