<svg xmlns="http://www.w3.org/2000/svg" viewBox="0 0 24 24"><defs><style>.cls-1{fill:#f8f8f8;}</style></defs><g id="Layer_2" data-name="Layer 2"><g id="Layer_1-2" data-name="Layer 1"><path class="cls-1" d="M10.09,1.76a2.7,2.7,0,0,1,2,0c3.07,1.85,6.07,3.85,9.09,5.81.2-.35.42-.68.63-1l-.06,0v0c-2-1.51-3.8-3-5.71-4.29A15.39,15.39,0,0,0,12,.15,3.34,3.34,0,0,0,7.71,2.66,4.41,4.41,0,0,0,10,7.38,8.72,8.72,0,0,0,12.41,8a18.07,18.07,0,0,0,1.81.14c-.41,1.69-.81,3-2.56,2.8a8.38,8.38,0,0,0-2.78.39c-.24.06-.4.53-.6.81.24.23.48.65.72.65,2.8,0,5.6,0,8.39-.15.29,0,.55-.7.82-1.07-.31-.23-.6-.6-.93-.66a15,15,0,0,0-2.17,0c.54-1.38,1-2.45,1.36-3.59A1.68,1.68,0,0,0,16.14,6a1.13,1.13,0,0,0-1.2,0,3.91,3.91,0,0,1-5.73-1.5C8.61,3.19,8.84,2.13,10.09,1.76Z"/><path class="cls-1" d="M.19,18.14c.24.39.44.68.59,1,1.58,3.14,4.11,4.05,6.56,1.78,1.77-1.65,3-4.08,4.52-6.11a5.29,5.29,0,0,1,1.84-1.48C13,18,8.15,24.78,3.42,23.93.9,23.47-.54,21.18.19,18.14Z"/><path class="cls-1" d="M21.85,6.55c-.17,0-.33,0-.5,0,0,.37-.07.75-.1,1.19,1.63.54,2.6-.55,2.75-2.81A2.28,2.28,0,0,1,21.85,6.55Z"/></g></g></svg>