<svg xmlns="http://www.w3.org/2000/svg" viewBox="0 0 220 220"><defs><style>.cls-1{fill:#f8f8f8;}.cls-2{fill:#666;}.cls-3{fill:#fff;}</style></defs><g id="Layer_2" data-name="Layer 2"><g id="Layer_1-2" data-name="Layer 1"><circle class="cls-1" cx="110" cy="110" r="110"/><path class="cls-2" d="M110.22,31.51q30.5,0,61,0c7.36,0,12.63,3.57,15.58,10.08a23,23,0,0,1,1.6,9c.16,13.58.07,27.16.07,40.74,0,26.25-.16,52.5.07,78.75.09,10.13-6.86,16.55-13.25,18a18.69,18.69,0,0,1-3.95.38c-40.84,0-81.67-.06-122.5.07-7.53,0-15.22-5.55-16.9-13.28a28.06,28.06,0,0,1-.44-5.95q0-37.12,0-74.24c0-15.25,0-30.5,0-45.75,0-8.71,4.87-15.13,13-17.34a18.31,18.31,0,0,1,4.69-.44q30.5,0,61,0Zm7.89,70.76c0-2.6-.11-4.4,0-6.18.16-2.12-.74-2.76-2.76-2.73q-9.61.14-19.24,0c-2,0-2.82.64-2.81,2.74q.08,34.11,0,68.22c0,2.06.73,2.78,2.78,2.75,6.33-.09,12.66-.15,19,0,2.48.06,3.08-.82,3.06-3.17-.1-12.57-.06-25.15,0-37.73a26,26,0,0,1,.47-5.21,11,11,0,0,1,8.3-8.77c4.82-1.24,9.21-.21,12.56,3.93,2.2,2.72,2.64,5.8,2.63,9.13q-.08,19.24,0,38.48c0,3.08.24,3.28,3.25,3.28,6.34,0,12.67-.05,19,.05,2.08,0,2.74-.72,2.73-2.77-.07-14.41.06-28.82-.09-43.23-.09-9.59-3.7-17.53-11.58-23.44-10.3-7.72-25-8.35-35,2.46C119.85,100.67,119.26,101.17,118.11,102.27Zm-65.2,28c0,11.24.06,22.49,0,33.73,0,2.44.8,3.16,3.17,3.11,6.25-.13,12.5-.09,18.74,0,2,0,2.79-.62,2.79-2.72q-.09-34.1,0-68.21c0-2.07-.77-2.8-2.8-2.77-6.25.07-12.5.1-18.74,0-2.4,0-3.17.75-3.15,3.16C53,107.75,52.91,119,52.91,130.24Zm-2.59-65A14.54,14.54,0,0,0,65.2,80.05c7.86,0,14.82-6.83,14.86-14.53C80.1,57.58,73.4,50,64.61,50.3A14.81,14.81,0,0,0,50.32,65.23Z"/><path class="cls-3" d="M118.11,102.27c1.15-1.1,1.74-1.6,2.26-2.17,10-10.81,24.73-10.18,35-2.46,7.88,5.91,11.49,13.85,11.58,23.44.15,14.41,0,28.82.09,43.23,0,2.05-.65,2.81-2.73,2.77-6.33-.1-12.66,0-19-.05-3,0-3.25-.2-3.25-3.28q0-19.25,0-38.48c0-3.33-.43-6.41-2.63-9.13-3.35-4.14-7.74-5.17-12.56-3.93a11,11,0,0,0-8.3,8.77,26,26,0,0,0-.47,5.21c0,12.58-.07,25.16,0,37.73,0,2.35-.58,3.23-3.06,3.17-6.33-.16-12.66-.1-19,0-2,0-2.79-.69-2.78-2.75q.08-34.11,0-68.22c0-2.1.8-2.76,2.81-2.74q9.61.12,19.24,0c2,0,2.92.61,2.76,2.73C118,97.87,118.11,99.67,118.11,102.27Z"/><path class="cls-3" d="M52.91,130.24c0-11.25.05-22.49,0-33.73,0-2.41.75-3.21,3.15-3.16,6.24.13,12.49.1,18.74,0,2,0,2.8.7,2.8,2.77q-.06,34.11,0,68.21c0,2.1-.76,2.75-2.79,2.72-6.24-.09-12.49-.13-18.74,0-2.37,0-3.2-.67-3.17-3.11C53,152.73,52.91,141.48,52.91,130.24Z"/><path class="cls-3" d="M50.32,65.23A14.81,14.81,0,0,1,64.61,50.3C73.4,50,80.1,57.58,80.06,65.52c0,7.7-7,14.53-14.86,14.53A14.54,14.54,0,0,1,50.32,65.23Z"/></g></g></svg>