<svg xmlns="http://www.w3.org/2000/svg" viewBox="0 0 220 220"><defs><style>.cls-1{fill:#f8f8f8;}.cls-2{fill:#666;}</style></defs><g id="Layer_2" data-name="Layer 2"><g id="Layer_1-2" data-name="Layer 1"><circle class="cls-1" cx="110" cy="110" r="110"/><path class="cls-2" d="M110.16,40.13q34.13,0,68.25,0c11.53,0,18.94,7.39,19,18.9q0,51,0,102c0,11.42-7.36,18.82-18.75,18.82q-68.62,0-137.24,0C30,179.86,22.62,172.4,22.63,161q.06-50.88.2-101.75c0-9.79,4.41-16.13,12.67-18.32a25.18,25.18,0,0,1,6.42-.76q34.13-.08,68.24,0ZM180,74.82c-1.6,1-2.73,1.67-3.85,2.37q-32,20-63.93,40a3.52,3.52,0,0,1-4.42,0Q75.44,96.87,43,76.65c-.89-.55-1.8-1.06-3-1.76v87.54H180Zm.16-17.19h-140c.82.59,1.2.9,1.62,1.17Q75,79.59,108.21,100.4c1.48.93,2.49.64,3.81-.19Q135.39,85.56,158.82,71C165.73,66.66,172.63,62.33,180.14,57.63Z"/></g></g></svg>