<svg xmlns="http://www.w3.org/2000/svg" viewBox="0 0 24 24"><defs><style>.cls-1{fill:#fff;}.cls-2{fill:#fafafa;}.cls-3{fill:#dfdfdf;}.cls-4{fill:#f8f8f8;}.cls-5{fill:#666766;}</style></defs><g id="Layer_2" data-name="Layer 2"><g id="Layer_1-2" data-name="Layer 1"><path class="cls-1" d="M23.85,0H24V24H0V.13A.61.61,0,0,1,0,0V23.61a2,2,0,0,0,0,.24H23.62c.23,0,.23,0,.23-.22V0Z"/><path class="cls-2" d="M.06,23.85a2,2,0,0,1,0-.24V0h0V23.85Z"/><path class="cls-3" d="M.06,0V0H23.85V0Z"/><path class="cls-4" d="M.06,0H23.85v23.6c0,.22,0,.22-.23.22H.06V0ZM12.28,13.15h0c-.11-.22-.23-.45-.33-.68-.44-1-.88-1.94-1.33-2.91L9.53,7.23c-.22-.47-.44-1-.67-1.42a.62.62,0,0,0-.52-.41l-1.25,0H4.19a.18.18,0,0,0-.13.31c.34.42.66.86,1,1.25a2.34,2.34,0,0,1,.65,1.71c0,.41,0,.82,0,1.22,0,1.63,0,3.25,0,4.87A2,2,0,0,1,5.28,16c-.4.52-.82,1-1.23,1.53a1.46,1.46,0,0,0-.24.52H8.7a5.69,5.69,0,0,0-.35-.57C8,17,7.58,16.55,7.2,16.07A2.21,2.21,0,0,1,6.73,15a7,7,0,0,1,0-.8c0-1.58,0-3.16,0-4.74,0-.05,0-.09,0-.14l.06,0c.12.19.25.38.35.58s.29.65.44,1l1.21,2.64,1.83,4a1.38,1.38,0,0,0,.48.56s.12,0,.14,0a1.55,1.55,0,0,0,.42-.62l3.06-7.75c0-.1.1-.21.14-.31,0,.31.06.6.07.89l0,2,0,3.39a1.9,1.9,0,0,1-.76,1.58,6.25,6.25,0,0,0-.67.69c-.08.09,0,.18.08.2h6a.41.41,0,0,0,.16,0c.12,0,.15-.12.07-.21a8.85,8.85,0,0,0-.76-.74,1.7,1.7,0,0,1-.65-1.41c0-.63,0-1.25,0-1.87,0-1.46,0-2.91,0-4.37,0-.55,0-1.11,0-1.66a1.92,1.92,0,0,1,.69-1.46c.25-.22.49-.47.73-.7a.15.15,0,0,0-.08-.26h-.14l-1.12,0-2.56,0a.65.65,0,0,0-.74.5l-.32.84-2,5.09C12.65,12.25,12.47,12.7,12.28,13.15Z"/><path class="cls-5" d="M12.28,13.15c.19-.45.37-.9.55-1.35l2-5.09.32-.84a.65.65,0,0,1,.74-.5l2.56,0,1.12,0h.14a.15.15,0,0,1,.08.26c-.24.23-.48.48-.73.7a1.92,1.92,0,0,0-.69,1.46c0,.55,0,1.11,0,1.66,0,1.46,0,2.91,0,4.37,0,.62,0,1.24,0,1.87a1.7,1.7,0,0,0,.65,1.41,8.85,8.85,0,0,1,.76.74c.08.09.05.18-.07.21a.41.41,0,0,1-.16,0h-6c-.12,0-.16-.11-.08-.2a6.25,6.25,0,0,1,.67-.69A1.9,1.9,0,0,0,15,15.6l0-3.39,0-2c0-.29,0-.58-.07-.89,0,.1-.1.21-.14.31l-3.06,7.75a1.55,1.55,0,0,1-.42.62s-.11,0-.14,0a1.38,1.38,0,0,1-.48-.56l-1.83-4L7.55,10.85c-.15-.32-.28-.65-.44-1s-.23-.39-.35-.58l-.06,0s0,.09,0,.14c0,1.58,0,3.16,0,4.74a7,7,0,0,0,0,.8,2.21,2.21,0,0,0,.47,1.07c.38.48.77.94,1.15,1.42a5.69,5.69,0,0,1,.35.57H3.81a1.46,1.46,0,0,1,.24-.52c.41-.51.83-1,1.23-1.53a2,2,0,0,0,.44-1.28c0-1.62,0-3.24,0-4.87,0-.4,0-.81,0-1.22a2.34,2.34,0,0,0-.65-1.71c-.37-.39-.69-.83-1-1.25a.18.18,0,0,1,.13-.31h2.9l1.25,0a.62.62,0,0,1,.52.41c.23.47.45,1,.67,1.42l1.05,2.32c.45,1,.89,1.94,1.33,2.91.1.23.22.46.33.68Z"/></g></g></svg>